{"accessors" : [{"bufferView" : 0, "byteOffset" : 0, "componentType" : 5123, "count" : 666, "type" : "SCALAR", "max" : [447], "min" : [0]}, {"bufferView" : 1, "byteOffset" : 0, "componentType" : 5126, "count" : 448, "type" : "VEC3", "max" : [0.41529300808906555, 0.426156610250473, 0.5654895901679993], "min" : [-0.4222553074359894, -0.21754209697246552, -0.3570876121520996], "name" : "POSITION"}, {"bufferView" : 1, "byteOffset" : 12, "componentType" : 5126, "count" : 448, "type" : "VEC2", "max" : [0.12455079704523087, 1.1155022382736206], "min" : [-0.12563200294971466, 0.9266047477722168], "name" : "TEXCOORD_0"}, {"bufferView" : 1, "byteOffset" : 20, "componentType" : 5126, "count" : 448, "type" : "VEC3", "max" : [0.9940014481544495, 0.9865989685058594, 0.9724595546722412], "min" : [-0.9989433884620667, -0.9990119338035583, -0.9914057850837708], "name" : "NORMAL"}, {"bufferView" : 0, "byteOffset" : 1332, "componentType" : 5123, "count" : 306, "type" : "SCALAR", "max" : [237], "min" : [0]}, {"bufferView" : 2, "byteOffset" : 0, "componentType" : 5126, "count" : 238, "type" : "VEC3", "max" : [0.36363059282302856, 0.2884973883628845, 0.27917739748954773], "min" : [-0.33864539861679077, -0.20581050217151642, -0.3165731132030487], "name" : "POSITION"}, {"bufferView" : 2, "byteOffset" : 12, "componentType" : 5126, "count" : 238, "type" : "VEC2", "max" : [0.10099499672651291, 1.1037315130233765], "min" : [-0.10130249708890915, 0.9293468594551086], "name" : "TEXCOORD_0"}, {"bufferView" : 2, "byteOffset" : 20, "componentType" : 5126, "count" : 238, "type" : "VEC3", "max" : [0.9047418236732483, 0.8214032053947449, 0.9807153344154358], "min" : [-0.9337674975395203, -0.9982205629348755, -0.843550980091095], "name" : "NORMAL"}, {"bufferView" : 0, "byteOffset" : 1944, "componentType" : 5123, "count" : 90, "type" : "SCALAR", "max" : [45], "min" : [0]}, {"bufferView" : 3, "byteOffset" : 0, "componentType" : 5126, "count" : 46, "type" : "VEC3", "max" : [0.21242760121822357, 0.27870869636535645, -0.2467021942138672], "min" : [-0.20017990469932556, 0.15879349410533905, -0.3165731132030487], "name" : "POSITION"}, {"bufferView" : 3, "byteOffset" : 12, "componentType" : 5126, "count" : 46, "type" : "VEC2", "max" : [-0.04684364050626755, 1.0157907009124756], "min" : [-0.08043526858091354, 0.9486202001571655], "name" : "TEXCOORD_0"}, {"bufferView" : 3, "byteOffset" : 20, "componentType" : 5126, "count" : 46, "type" : "VEC3", "max" : [0.4648910164833069, 0.32114383578300476, -0.8307016491889954], "min" : [-0.45476388931274414, 0.29220935702323914, -0.8409122228622437], "name" : "NORMAL"}, {"bufferView" : 0, "byteOffset" : 2124, "componentType" : 5123, "count" : 300, "type" : "SCALAR", "max" : [197], "min" : [0]}, {"bufferView" : 4, "byteOffset" : 0, "componentType" : 5126, "count" : 198, "type" : "VEC3", "max" : [0.40512990951538086, 0.33617499470710754, 0.40318191051483154], "min" : [-0.3951970040798187, -0.1599458009004593, -0.3267880976200104], "name" : "POSITION"}, {"bufferView" : 4, "byteOffset" : 12, "componentType" : 5126, "count" : 198, "type" : "VEC2", "max" : [0.10838119685649872, 1.1022744178771973], "min" : [-0.10838119685649872, 0.9376686811447144], "name" : "TEXCOORD_0"}, {"bufferView" : 4, "byteOffset" : 20, "componentType" : 5126, "count" : 198, "type" : "VEC3", "max" : [0.9539056420326233, 0.9325017929077148, 0.9724510908126831], "min" : [-0.9539056420326233, -0.9325017929077148, -0.9724510908126831], "name" : "NORMAL"}, {"bufferView" : 0, "byteOffset" : 2724, "componentType" : 5123, "count" : 900, "type" : "SCALAR", "max" : [541], "min" : [0]}, {"bufferView" : 5, "byteOffset" : 0, "componentType" : 5126, "count" : 542, "type" : "VEC3", "max" : [0.30553969740867615, 0.6224954724311829, 0.6130480170249939], "min" : [-0.27300938963890076, 0.09952762722969055, 0.015718160197138786], "name" : "POSITION"}, {"bufferView" : 5, "byteOffset" : 12, "componentType" : 5126, "count" : 542, "type" : "VEC2", "max" : [0.1369355022907257, 1.1300854682922363], "min" : [-0.14950419962406158, 0.8718534708023071], "name" : "TEXCOORD_0"}, {"bufferView" : 5, "byteOffset" : 20, "componentType" : 5126, "count" : 542, "type" : "VEC3", "max" : [0.9688254594802856, 0.9814664125442505, 0.9744701385498047], "min" : [-0.971176266670227, -0.9371708035469055, -0.9904839396476746], "name" : "NORMAL"}, {"bufferView" : 0, "byteOffset" : 4524, "componentType" : 5123, "count" : 72, "type" : "SCALAR", "max" : [47], "min" : [0]}, {"bufferView" : 6, "byteOffset" : 0, "componentType" : 5126, "count" : 48, "type" : "VEC3", "max" : [0.04261403903365135, 0.13148030638694763, -0.3320727050304413], "min" : [-0.020664669573307037, 0.11379580199718475, -0.34929800033569336], "name" : "POSITION"}, {"bufferView" : 6, "byteOffset" : 12, "componentType" : 5126, "count" : 48, "type" : "VEC2", "max" : [0.05363957956433296, 1.032353162765503], "min" : [-0.0536445789039135, 0.9589710235595703], "name" : "TEXCOORD_0"}, {"bufferView" : 6, "byteOffset" : 20, "componentType" : 5126, "count" : 48, "type" : "VEC3", "max" : [0.7054227590560913, 0.811721920967102, 0.867202877998352], "min" : [-0.7005345821380615, -0.811723530292511, -0.8672086000442505], "name" : "NORMAL"}], "asset" : {"generator" : "Aspose.3D 24.9.1", "version" : "2.0"}, "buffers" : [{"uri" : "data:application/octet-stream;base64,", "byteLength" : 53336}], "bufferViews" : [{"buffer" : 0, "byteOffset" : 0, "byteLength" : 4668, "target" : 34963}, {"buffer" : 0, "byteOffset" : 4672, "byteLength" : 14336, "byteStride" : 32, "target" : 34962}, {"buffer" : 0, "byteOffset" : 19012, "byteLength" : 7616, "byteStride" : 32, "target" : 34962}, {"buffer" : 0, "byteOffset" : 26632, "byteLength" : 1472, "byteStride" : 32, "target" : 34962}, {"buffer" : 0, "byteOffset" : 28108, "byteLength" : 6336, "byteStride" : 32, "target" : 34962}, {"buffer" : 0, "byteOffset" : 34448, "byteLength" : 17344, "byteStride" : 32, "target" : 34962}, {"buffer" : 0, "byteOffset" : 51796, "byteLength" : 1536, "byteStride" : 32, "target" : 34962}], "materials" : [{"name" : "mat10", "pbrMetallicRoughness" : {"baseColorFactor" : [0.07, 0.44, 0.08, 1], "metallicFactor" : 1, "roughnessFactor" : 1}, "emissiveFactor" : [0, 0, 0], "alphaMode" : "OPAQUE", "doubleSided" : false}, {"name" : "mat21", "pbrMetallicRoughness" : {"baseColorFactor" : [1, 1, 1, 1], "metallicFactor" : 1, "roughnessFactor" : 1}, "emissiveFactor" : [0, 0, 0], "alphaMode" : "OPAQUE", "doubleSided" : false}, {"name" : "mat8", "pbrMetallicRoughness" : {"baseColorFactor" : [0.91, 0.05, 0.03, 1], "metallicFactor" : 1, "roughnessFactor" : 1}, "emissiveFactor" : [0, 0, 0], "alphaMode" : "OPAQUE", "doubleSided" : false}, {"name" : "mat11", "pbrMetallicRoughness" : {"baseColorFactor" : [0, 0.31, 0.25, 1], "metallicFactor" : 1, "roughnessFactor" : 1}, "emissiveFactor" : [0, 0, 0], "alphaMode" : "OPAQUE", "doubleSided" : false}, {"name" : "mat9", "pbrMetallicRoughness" : {"baseColorFactor" : [0.27, 0.55, 0.07, 1], "metallicFactor" : 1, "roughnessFactor" : 1}, "emissiveFactor" : [0, 0, 0], "alphaMode" : "OPAQUE", "doubleSided" : false}, {"name" : "mat23", "pbrMetallicRoughness" : {"baseColorFactor" : [0.01, 0.01, 0.01, 1], "metallicFactor" : 1, "roughnessFactor" : 1}, "emissiveFactor" : [0, 0, 0], "alphaMode" : "OPAQUE", "doubleSided" : false}], "meshes" : [{"primitives" : [{"attributes" : {"POSITION" : 1, "TEXCOORD_0" : 2, "NORMAL" : 3}, "indices" : 0, "material" : 0, "mode" : 4}, {"attributes" : {"POSITION" : 5, "TEXCOORD_0" : 6, "NORMAL" : 7}, "indices" : 4, "material" : 1, "mode" : 4}, {"attributes" : {"POSITION" : 9, "TEXCOORD_0" : 10, "NORMAL" : 11}, "indices" : 8, "material" : 2, "mode" : 4}, {"attributes" : {"POSITION" : 13, "TEXCOORD_0" : 14, "NORMAL" : 15}, "indices" : 12, "material" : 3, "mode" : 4}, {"attributes" : {"POSITION" : 17, "TEXCOORD_0" : 18, "NORMAL" : 19}, "indices" : 16, "material" : 4, "mode" : 4}], "name" : ""}, {"primitives" : [{"attributes" : {"POSITION" : 21, "TEXCOORD_0" : 22, "NORMAL" : 23}, "indices" : 20, "material" : 5, "mode" : 4}], "name" : ""}], "nodes" : [{"mesh" : 0, "name" : "mesh1210171072"}, {"mesh" : 1, "name" : "mesh1600314369"}], "scene" : 0, "scenes" : [{"nodes" : [0, 1]}]}