{"accessors" : [{"bufferView" : 0, "byteOffset" : 0, "componentType" : 5123, "count" : 2280, "type" : "SCALAR", "max" : [1559], "min" : [0]}, {"bufferView" : 1, "byteOffset" : 0, "componentType" : 5126, "count" : 1560, "type" : "VEC3", "max" : [22.87325668334961, 14.884632110595703, 28.076005935668945], "min" : [-22.87325668334961, -17.79812240600586, -29.50373077392578], "name" : "POSITION"}, {"bufferView" : 1, "byteOffset" : 12, "componentType" : 5126, "count" : 1560, "type" : "VEC2", "max" : [0.9675840139389038, 0.9349430203437805], "min" : [0.10568899661302567, 0.052169978618621826], "name" : "TEXCOORD_0"}, {"bufferView" : 1, "byteOffset" : 20, "componentType" : 5126, "count" : 1560, "type" : "VEC3", "max" : [0.9968549609184265, 0.9985461831092834, 0.9854303002357483], "min" : [-0.9968549609184265, -1.0000044107437134, -0.9524027109146118], "name" : "NORMAL"}], "asset" : {"generator" : "Aspose.3D 24.6.0", "version" : "2.0"}, "buffers" : [{"uri" : "data:application/octet-stream;base64,", "byteLength" : 54488}], "bufferViews" : [{"buffer" : 0, "byteOffset" : 0, "byteLength" : 4560, "target" : 34963}, {"buffer" : 0, "byteOffset" : 4564, "byteLength" : 49920, "byteStride" : 32, "target" : 34962}], "images" : [{"uri" : "data:image/png;base64,"}], "materials" : [{"name" : "lambert2SG", "pbrMetallicRoughness" : {"baseColorFactor" : [1, 1, 1, 1], "baseColorTexture" : {"index" : 0, "texCoord" : 0}, "metallicFactor" : 1, "roughnessFactor" : 1}, "emissiveFactor" : [0, 0, 0], "alphaMode" : "OPAQUE", "doubleSided" : false}], "meshes" : [{"primitives" : [{"attributes" : {"POSITION" : 1, "TEXCOORD_0" : 2, "NORMAL" : 3}, "indices" : 0, "material" : 0, "mode" : 4}], "name" : ""}], "nodes" : [{"mesh" : 0, "name" : "Geo_Frog"}], "samplers" : [{"magFilter" : 9729, "minFilter" : 9729, "wrapS" : 10497, "wrapT" : 10497}], "scene" : 0, "scenes" : [{"nodes" : [0]}], "textures" : [{"sampler" : 0, "source" : 0, "name" : ""}]}