{"accessors" : [{"bufferView" : 0, "byteOffset" : 0, "componentType" : 5123, "count" : 720, "type" : "SCALAR", "max" : [463], "min" : [0]}, {"bufferView" : 1, "byteOffset" : 0, "componentType" : 5126, "count" : 464, "type" : "VEC3", "max" : [6.170259952545166, 4.472506999969482, 6.17310094833374], "min" : [-6.186017990112305, 3.453381061553955, -6.184048175811768], "name" : "POSITION"}, {"bufferView" : 1, "byteOffset" : 12, "componentType" : 5126, "count" : 464, "type" : "VEC3", "max" : [0.9995431303977966, 0.9999904632568359, 0.9974066019058228], "min" : [-0.9996146559715271, -0.9999967217445374, -0.997194230556488], "name" : "NORMAL"}, {"bufferView" : 0, "byteOffset" : 1440, "componentType" : 5123, "count" : 96, "type" : "SCALAR", "max" : [63], "min" : [0]}, {"bufferView" : 2, "byteOffset" : 0, "componentType" : 5126, "count" : 64, "type" : "VEC3", "max" : [4.765332221984863, 4.276158809661865, 4.931593894958496], "min" : [-4.9449567794799805, 3.6260180473327637, -4.8397040367126465], "name" : "POSITION"}, {"bufferView" : 2, "byteOffset" : 12, "componentType" : 5126, "count" : 64, "type" : "VEC3", "max" : [0.03350093960762024, 0.9999082088470459, 0.03119964711368084], "min" : [-0.04130100831389427, -0.9999915957450867, -0.03549899533390999], "name" : "NORMAL"}, {"bufferView" : 0, "byteOffset" : 1632, "componentType" : 5123, "count" : 336, "type" : "SCALAR", "max" : [287], "min" : [0]}, {"bufferView" : 3, "byteOffset" : 0, "componentType" : 5126, "count" : 288, "type" : "VEC3", "max" : [5.85823917388916, 5.570752143859863, 6.026269912719727], "min" : [-6.180184841156006, 3.7303640842437744, -6.558699131011963], "name" : "POSITION"}, {"bufferView" : 3, "byteOffset" : 12, "componentType" : 5126, "count" : 288, "type" : "VEC3", "max" : [0.9999368786811829, 0.9862263202667236, 0.9718676209449768], "min" : [-0.9999306201934814, -0.9862954616546631, -0.8309947848320007], "name" : "NORMAL"}, {"bufferView" : 0, "byteOffset" : 2304, "componentType" : 5123, "count" : 432, "type" : "SCALAR", "max" : [274], "min" : [0]}, {"bufferView" : 4, "byteOffset" : 0, "componentType" : 5126, "count" : 275, "type" : "VEC3", "max" : [6.043629169464111, 10.043021202087402, 6.096242904663086], "min" : [-6.05937385559082, 0.07117199897766113, -6.056971073150635], "name" : "POSITION"}, {"bufferView" : 4, "byteOffset" : 12, "componentType" : 5126, "count" : 275, "type" : "VEC3", "max" : [0.9238806962966919, 1.0000044107437134, 0.9238806962966919], "min" : [-0.9238806962966919, -1.0000044107437134, -0.9238806962966919], "name" : "NORMAL"}, {"bufferView" : 0, "byteOffset" : 3168, "componentType" : 5123, "count" : 552, "type" : "SCALAR", "max" : [383], "min" : [0]}, {"bufferView" : 5, "byteOffset" : 0, "componentType" : 5126, "count" : 384, "type" : "VEC3", "max" : [5.788455963134766, 10.101088523864746, 5.790859222412109], "min" : [-5.804201126098633, 1.633226990699768, -5.801797866821289], "name" : "POSITION"}, {"bufferView" : 5, "byteOffset" : 12, "componentType" : 5126, "count" : 384, "type" : "VEC3", "max" : [0.9882926940917969, 0.9998738169670105, 0.9882926940917969], "min" : [-0.9882926940917969, -1.0000044107437134, -0.9882926940917969], "name" : "NORMAL"}, {"bufferView" : 0, "byteOffset" : 4272, "componentType" : 5123, "count" : 348, "type" : "SCALAR", "max" : [203], "min" : [0]}, {"bufferView" : 6, "byteOffset" : 0, "componentType" : 5126, "count" : 204, "type" : "VEC3", "max" : [5.343954086303711, 6.017032146453857, 5.34635591506958], "min" : [-5.3596978187561035, 4.893073081970215, -5.357295989990234], "name" : "POSITION"}, {"bufferView" : 6, "byteOffset" : 12, "componentType" : 5126, "count" : 204, "type" : "VEC3", "max" : [1.0000044107437134, 0.999183177947998, 1.0000044107437134], "min" : [-1.0000044107437134, -0.9991992712020874, -1.0000044107437134], "name" : "NORMAL"}], "asset" : {"generator" : "Aspose.3D 24.9.1", "version" : "2.0"}, "buffers" : [{"uri" : "data:application/octet-stream;base64,", "byteLength" : 45292}], "bufferViews" : [{"buffer" : 0, "byteOffset" : 0, "byteLength" : 4968, "target" : 34963}, {"buffer" : 0, "byteOffset" : 4972, "byteLength" : 11136, "byteStride" : 24, "target" : 34962}, {"buffer" : 0, "byteOffset" : 16112, "byteLength" : 1536, "byteStride" : 24, "target" : 34962}, {"buffer" : 0, "byteOffset" : 17652, "byteLength" : 6912, "byteStride" : 24, "target" : 34962}, {"buffer" : 0, "byteOffset" : 24568, "byteLength" : 6600, "byteStride" : 24, "target" : 34962}, {"buffer" : 0, "byteOffset" : 31172, "byteLength" : 9216, "byteStride" : 24, "target" : 34962}, {"buffer" : 0, "byteOffset" : 40392, "byteLength" : 4896, "byteStride" : 24, "target" : 34962}], "materials" : [{"name" : "F44336", "pbrMetallicRoughness" : {"baseColorFactor" : [0.91, 0.05, 0.03, 1], "metallicFactor" : 1, "roughnessFactor" : 1}, "emissiveFactor" : [0, 0, 0], "alphaMode" : "OPAQUE", "doubleSided" : false}, {"name" : "FF5722", "pbrMetallicRoughness" : {"baseColorFactor" : [1, 0.09, 0.01, 1], "metallicFactor" : 1, "roughnessFactor" : 1}, "emissiveFactor" : [0, 0, 0], "alphaMode" : "OPAQUE", "doubleSided" : false}, {"name" : "8BC34A", "pbrMetallicRoughness" : {"baseColorFactor" : [0.26, 0.55, 0.07, 1], "metallicFactor" : 1, "roughnessFactor" : 1}, "emissiveFactor" : [0, 0, 0], "alphaMode" : "OPAQUE", "doubleSided" : false}, {"name" : "DD9944", "pbrMetallicRoughness" : {"baseColorFactor" : [0.73, 0.33, 0.05, 1], "metallicFactor" : 1, "roughnessFactor" : 1}, "emissiveFactor" : [0, 0, 0], "alphaMode" : "OPAQUE", "doubleSided" : false}, {"name" : "795548", "pbrMetallicRoughness" : {"baseColorFactor" : [0.19, 0.09, 0.06, 1], "metallicFactor" : 1, "roughnessFactor" : 1}, "emissiveFactor" : [0, 0, 0], "alphaMode" : "OPAQUE", "doubleSided" : false}, {"name" : "FF9800", "pbrMetallicRoughness" : {"baseColorFactor" : [1, 0.32, 0, 1], "metallicFactor" : 1, "roughnessFactor" : 1}, "emissiveFactor" : [0, 0, 0], "alphaMode" : "OPAQUE", "doubleSided" : false}], "meshes" : [{"primitives" : [{"attributes" : {"POSITION" : 1, "NORMAL" : 2}, "indices" : 0, "material" : 0, "mode" : 4}, {"attributes" : {"POSITION" : 4, "NORMAL" : 5}, "indices" : 3, "material" : 1, "mode" : 4}, {"attributes" : {"POSITION" : 7, "NORMAL" : 8}, "indices" : 6, "material" : 2, "mode" : 4}, {"attributes" : {"POSITION" : 10, "NORMAL" : 11}, "indices" : 9, "material" : 3, "mode" : 4}, {"attributes" : {"POSITION" : 13, "NORMAL" : 14}, "indices" : 12, "material" : 4, "mode" : 4}, {"attributes" : {"POSITION" : 16, "NORMAL" : 17}, "indices" : 15, "material" : 5, "mode" : 4}], "name" : ""}], "nodes" : [{"mesh" : 0, "name" : "Circle.003_Circle.004"}], "scene" : 0, "scenes" : [{"nodes" : [0]}]}