{"accessors" : [{"bufferView" : 0, "byteOffset" : 0, "componentType" : 5123, "count" : 390, "type" : "SCALAR", "max" : [271], "min" : [0]}, {"bufferView" : 1, "byteOffset" : 0, "componentType" : 5126, "count" : 272, "type" : "VEC3", "max" : [0.19087719917297363, 0.24171629548072815, 0.3099474012851715], "min" : [-0.3102099895477295, -0.01412368007004261, -0.19043560326099396], "name" : "POSITION"}, {"bufferView" : 1, "byteOffset" : 12, "componentType" : 5126, "count" : 272, "type" : "VEC2", "max" : [0.10543479770421982, 1.09409761428833], "min" : [-0.10543479770421982, 0.9124860763549805], "name" : "TEXCOORD_0"}, {"bufferView" : 1, "byteOffset" : 20, "componentType" : 5126, "count" : 272, "type" : "VEC3", "max" : [0.9675703644752502, 0.9972953796386719, 0.9627279043197632], "min" : [-0.9675702452659607, -0.9995888471603394, -0.9627281427383423], "name" : "NORMAL"}, {"bufferView" : 0, "byteOffset" : 780, "componentType" : 5123, "count" : 582, "type" : "SCALAR", "max" : [391], "min" : [0]}, {"bufferView" : 2, "byteOffset" : 0, "componentType" : 5126, "count" : 392, "type" : "VEC3", "max" : [0.1938749998807907, 0.07684552669525146, 0.3036426901817322], "min" : [-0.30724379420280457, -0.2571049928665161, -0.19680720567703247], "name" : "POSITION"}, {"bufferView" : 2, "byteOffset" : 12, "componentType" : 5126, "count" : 392, "type" : "VEC2", "max" : [0.10485109686851501, 1.0935332775115967], "min" : [-0.10006590187549591, 0.9111932516098022], "name" : "TEXCOORD_0"}, {"bufferView" : 2, "byteOffset" : 20, "componentType" : 5126, "count" : 392, "type" : "VEC3", "max" : [0.9675703644752502, 0.9993153214454651, 0.962727963924408], "min" : [-0.9675703644752502, -0.9972954392433167, -0.962727963924408], "name" : "NORMAL"}, {"bufferView" : 0, "byteOffset" : 1944, "componentType" : 5123, "count" : 240, "type" : "SCALAR", "max" : [151], "min" : [0]}, {"bufferView" : 3, "byteOffset" : 0, "componentType" : 5126, "count" : 152, "type" : "VEC3", "max" : [0.17758889496326447, 0.09931778907775879, 0.27896741032600403], "min" : [-0.2837047874927521, -0.08392918109893799, -0.17656999826431274], "name" : "POSITION"}, {"bufferView" : 3, "byteOffset" : 12, "componentType" : 5126, "count" : 152, "type" : "VEC2", "max" : [0.10170040279626846, 1.0342872142791748], "min" : [-0.10248859971761703, 0.9106072187423706], "name" : "TEXCOORD_0"}, {"bufferView" : 3, "byteOffset" : 20, "componentType" : 5126, "count" : 152, "type" : "VEC3", "max" : [0.9677250981330872, 0.9936943054199219, 0.9664267301559448], "min" : [-0.9785234332084656, -0.9936943054199219, -0.9712574481964111], "name" : "NORMAL"}], "asset" : {"generator" : "Aspose.3D 24.9.1", "version" : "2.0"}, "buffers" : [{"uri" : "data:application/octet-stream;base64,", "byteLength" : 28552}], "bufferViews" : [{"buffer" : 0, "byteOffset" : 0, "byteLength" : 2424, "target" : 34963}, {"buffer" : 0, "byteOffset" : 2428, "byteLength" : 8704, "byteStride" : 32, "target" : 34962}, {"buffer" : 0, "byteOffset" : 11136, "byteLength" : 12544, "byteStride" : 32, "target" : 34962}, {"buffer" : 0, "byteOffset" : 23684, "byteLength" : 4864, "byteStride" : 32, "target" : 34962}], "materials" : [{"name" : "mat8", "pbrMetallicRoughness" : {"baseColorFactor" : [0.91, 0.05, 0.03, 1], "metallicFactor" : 1, "roughnessFactor" : 1}, "emissiveFactor" : [0, 0, 0], "alphaMode" : "OPAQUE", "doubleSided" : false}, {"name" : "mat21", "pbrMetallicRoughness" : {"baseColorFactor" : [1, 1, 1, 1], "metallicFactor" : 1, "roughnessFactor" : 1}, "emissiveFactor" : [0, 0, 0], "alphaMode" : "OPAQUE", "doubleSided" : false}, {"name" : "mat23", "pbrMetallicRoughness" : {"baseColorFactor" : [0.01, 0.01, 0.01, 1], "metallicFactor" : 1, "roughnessFactor" : 1}, "emissiveFactor" : [0, 0, 0], "alphaMode" : "OPAQUE", "doubleSided" : false}], "meshes" : [{"primitives" : [{"attributes" : {"POSITION" : 1, "TEXCOORD_0" : 2, "NORMAL" : 3}, "indices" : 0, "material" : 0, "mode" : 4}, {"attributes" : {"POSITION" : 5, "TEXCOORD_0" : 6, "NORMAL" : 7}, "indices" : 4, "material" : 1, "mode" : 4}, {"attributes" : {"POSITION" : 9, "TEXCOORD_0" : 10, "NORMAL" : 11}, "indices" : 8, "material" : 2, "mode" : 4}], "name" : ""}], "nodes" : [{"mesh" : 0, "name" : "mesh784506730"}], "scene" : 0, "scenes" : [{"nodes" : [0]}]}