{"accessors" : [{"bufferView" : 0, "byteOffset" : 0, "componentType" : 5123, "count" : 828, "type" : "SCALAR", "max" : [551], "min" : [0]}, {"bufferView" : 1, "byteOffset" : 0, "componentType" : 5126, "count" : 552, "type" : "VEC3", "max" : [0.3339371979236603, 0.4154052138328552, 0.2983222007751465], "min" : [-0.356758713722229, -0.21440419554710388, -0.15584340691566467], "name" : "POSITION"}, {"bufferView" : 1, "byteOffset" : 12, "componentType" : 5126, "count" : 552, "type" : "VEC2", "max" : [0.09189833700656891, 1.078568696975708], "min" : [-0.10223740339279175, 0.9148542881011963], "name" : "TEXCOORD_0"}, {"bufferView" : 1, "byteOffset" : 20, "componentType" : 5126, "count" : 552, "type" : "VEC3", "max" : [0.9950905442237854, 0.9960258603096008, 0.9951282739639282], "min" : [-0.9991259574890137, -0.997417151927948, -0.9786884188652039], "name" : "NORMAL"}, {"bufferView" : 0, "byteOffset" : 1656, "componentType" : 5123, "count" : 168, "type" : "SCALAR", "max" : [115], "min" : [0]}, {"bufferView" : 2, "byteOffset" : 0, "componentType" : 5126, "count" : 116, "type" : "VEC3", "max" : [0.14943340420722961, 0.36756131052970886, 0.06730794906616211], "min" : [-0.18113109469413757, -0.11376769840717316, -0.14673499763011932], "name" : "POSITION"}, {"bufferView" : 2, "byteOffset" : 12, "componentType" : 5126, "count" : 116, "type" : "VEC2", "max" : [-0.016481099650263786, 1.0424121618270874], "min" : [-0.09209375083446503, 0.964033305644989], "name" : "TEXCOORD_0"}, {"bufferView" : 2, "byteOffset" : 20, "componentType" : 5126, "count" : 116, "type" : "VEC3", "max" : [0.5037014484405518, 0.6712591648101807, -0.3019745349884033], "min" : [-0.8711514472961426, -0.449228435754776, -0.9844550490379333], "name" : "NORMAL"}, {"bufferView" : 0, "byteOffset" : 1992, "componentType" : 5123, "count" : 36, "type" : "SCALAR", "max" : [23], "min" : [0]}, {"bufferView" : 3, "byteOffset" : 0, "componentType" : 5126, "count" : 24, "type" : "VEC3", "max" : [0.07273014634847641, 0.3232192099094391, -0.010523470118641853], "min" : [0.013170350342988968, 0.3061563968658447, -0.026737390086054802], "name" : "POSITION"}, {"bufferView" : 3, "byteOffset" : 12, "componentType" : 5126, "count" : 24, "type" : "VEC2", "max" : [0.0798521563410759, 1.0383859872817993], "min" : [-0.07994923740625381, 0.9819377660751343], "name" : "TEXCOORD_0"}, {"bufferView" : 3, "byteOffset" : 20, "componentType" : 5126, "count" : 24, "type" : "VEC3", "max" : [0.8779037594795227, 0.9633848667144775, 0.995022177696228], "min" : [-0.5767803192138672, -0.9627526998519897, -0.9952626824378967], "name" : "NORMAL"}, {"bufferView" : 0, "byteOffset" : 2064, "componentType" : 5123, "count" : 36, "type" : "SCALAR", "max" : [23], "min" : [0]}, {"bufferView" : 4, "byteOffset" : 0, "componentType" : 5126, "count" : 24, "type" : "VEC3", "max" : [-0.034314628690481186, 0.3195304870605469, 0.0401776097714901], "min" : [-0.09011893719434738, 0.2977626919746399, -0.0063218181021511555], "name" : "POSITION"}, {"bufferView" : 4, "byteOffset" : 12, "componentType" : 5126, "count" : 24, "type" : "VEC2", "max" : [0.08765912055969238, 1.0684444904327393], "min" : [-0.08782213181257248, 0.9520671963691711], "name" : "TEXCOORD_0"}, {"bufferView" : 4, "byteOffset" : 20, "componentType" : 5126, "count" : 24, "type" : "VEC3", "max" : [0.6069030165672302, 0.9571987986564636, 0.7947043776512146], "min" : [-0.690592885017395, -0.95850670337677, -0.7950868010520935], "name" : "NORMAL"}, {"bufferView" : 0, "byteOffset" : 2136, "componentType" : 5123, "count" : 48, "type" : "SCALAR", "max" : [29], "min" : [0]}, {"bufferView" : 5, "byteOffset" : 0, "componentType" : 5126, "count" : 30, "type" : "VEC3", "max" : [0.02634849026799202, 0.2817797064781189, 0.00421452522277832], "min" : [-0.05376154184341431, 0.2678743004798889, -0.03309037908911705], "name" : "POSITION"}, {"bufferView" : 5, "byteOffset" : 12, "componentType" : 5126, "count" : 30, "type" : "VEC2", "max" : [0.08292782306671143, 1.0370471477508545], "min" : [-0.08401992917060852, 0.9321010112762451], "name" : "TEXCOORD_0"}, {"bufferView" : 5, "byteOffset" : 20, "componentType" : 5126, "count" : 30, "type" : "VEC3", "max" : [0.9724125862121582, 0.9944074749946594, 0.9399603009223938], "min" : [-0.8546905517578125, -0.9922996759414673, -0.9631133675575256], "name" : "NORMAL"}, {"bufferView" : 0, "byteOffset" : 2232, "componentType" : 5123, "count" : 24, "type" : "SCALAR", "max" : [17], "min" : [0]}, {"bufferView" : 6, "byteOffset" : 0, "componentType" : 5126, "count" : 18, "type" : "VEC3", "max" : [0.027298200875520706, 0.29454898834228516, -0.008321583271026611], "min" : [0.007418394088745117, 0.2784869968891144, -0.03137173876166344], "name" : "POSITION"}, {"bufferView" : 6, "byteOffset" : 12, "componentType" : 5126, "count" : 18, "type" : "VEC2", "max" : [0.07669424265623093, 1.0695372819900513], "min" : [-0.07735197246074677, 0.9547185301780701], "name" : "TEXCOORD_0"}, {"bufferView" : 6, "byteOffset" : 20, "componentType" : 5126, "count" : 18, "type" : "VEC3", "max" : [0.8252518177032471, 0.5559991598129272, 0.9775550961494446], "min" : [-0.8564283847808838, -0.9971619248390198, -0.9776855707168579], "name" : "NORMAL"}, {"bufferView" : 0, "byteOffset" : 2280, "componentType" : 5123, "count" : 24, "type" : "SCALAR", "max" : [17], "min" : [0]}, {"bufferView" : 7, "byteOffset" : 0, "componentType" : 5126, "count" : 18, "type" : "VEC3", "max" : [-0.028154339641332626, 0.2919270992279053, 0.011902780272066593], "min" : [-0.052337318658828735, 0.27550968527793884, -0.013124469667673111], "name" : "POSITION"}, {"bufferView" : 7, "byteOffset" : 12, "componentType" : 5126, "count" : 18, "type" : "VEC2", "max" : [0.08290991187095642, 1.0531388521194458], "min" : [-0.08348123729228973, 0.9596706032752991], "name" : "TEXCOORD_0"}, {"bufferView" : 7, "byteOffset" : 20, "componentType" : 5126, "count" : 18, "type" : "VEC3", "max" : [0.7813096046447754, 0.516179621219635, 0.8865330815315247], "min" : [-0.7062454223632812, -0.9953276515007019, -0.8860103487968445], "name" : "NORMAL"}, {"bufferView" : 0, "byteOffset" : 2328, "componentType" : 5123, "count" : 12, "type" : "SCALAR", "max" : [11], "min" : [0]}, {"bufferView" : 8, "byteOffset" : 0, "componentType" : 5126, "count" : 12, "type" : "VEC3", "max" : [0.3122968077659607, 0.08281639218330383, -0.12972259521484375], "min" : [0.2868661880493164, 0.06192455068230629, -0.1597331017255783], "name" : "POSITION"}, {"bufferView" : 8, "byteOffset" : 12, "componentType" : 5126, "count" : 12, "type" : "VEC2", "max" : [0.052013229578733444, 1.0134367942810059], "min" : [-0.05137060955166817, 0.9592674970626831], "name" : "TEXCOORD_0"}, {"bufferView" : 8, "byteOffset" : 20, "componentType" : 5126, "count" : 12, "type" : "VEC3", "max" : [0.9500715136528015, 0.6415430903434753, 0.9038642644882202], "min" : [-0.4421822130680084, -0.9763686656951904, -0.6268222332000732], "name" : "NORMAL"}, {"bufferView" : 0, "byteOffset" : 2352, "componentType" : 5123, "count" : 12, "type" : "SCALAR", "max" : [11], "min" : [0]}, {"bufferView" : 9, "byteOffset" : 0, "componentType" : 5126, "count" : 12, "type" : "VEC3", "max" : [0.3371472954750061, 0.07928791642189026, -0.11373680084943771], "min" : [0.31122830510139465, 0.05850842967629433, -0.14400699734687805], "name" : "POSITION"}, {"bufferView" : 9, "byteOffset" : 12, "componentType" : 5126, "count" : 12, "type" : "VEC2", "max" : [0.05079688876867294, 1.0113677978515625], "min" : [-0.05241585895419121, 0.9521251320838928], "name" : "TEXCOORD_0"}, {"bufferView" : 9, "byteOffset" : 20, "componentType" : 5126, "count" : 12, "type" : "VEC3", "max" : [0.9336099028587341, 0.639240562915802, 0.8233017325401306], "min" : [-0.5665146708488464, -0.979877769947052, -0.664766788482666], "name" : "NORMAL"}, {"bufferView" : 0, "byteOffset" : 2376, "componentType" : 5123, "count" : 12, "type" : "SCALAR", "max" : [11], "min" : [0]}, {"bufferView" : 10, "byteOffset" : 0, "componentType" : 5126, "count" : 12, "type" : "VEC3", "max" : [-0.339692085981369, 0.028165550902485847, 0.10056319832801819], "min" : [-0.3693298101425171, 0.002816111082211137, 0.08155292272567749], "name" : "POSITION"}, {"bufferView" : 10, "byteOffset" : 12, "componentType" : 5126, "count" : 12, "type" : "VEC2", "max" : [0.07402694225311279, 1.0519776344299316], "min" : [-0.06919644773006439, 1.0014283657073975], "name" : "TEXCOORD_0"}, {"bufferView" : 10, "byteOffset" : 20, "componentType" : 5126, "count" : 12, "type" : "VEC3", "max" : [0.9196946024894714, 0.6588041186332703, 0.8891130089759827], "min" : [-0.451455295085907, -0.8630613088607788, -0.6276155114173889], "name" : "NORMAL"}, {"bufferView" : 0, "byteOffset" : 2400, "componentType" : 5123, "count" : 12, "type" : "SCALAR", "max" : [11], "min" : [0]}, {"bufferView" : 11, "byteOffset" : 0, "componentType" : 5126, "count" : 12, "type" : "VEC3", "max" : [-0.33404138684272766, 0.03714483976364136, 0.07825993746519089], "min" : [-0.36558690667152405, 0.00981229543685913, 0.059477780014276505], "name" : "POSITION"}, {"bufferView" : 11, "byteOffset" : 12, "componentType" : 5126, "count" : 12, "type" : "VEC2", "max" : [0.07409243285655975, 1.0514196157455444], "min" : [-0.07221989333629608, 0.9825105667114258], "name" : "TEXCOORD_0"}, {"bufferView" : 11, "byteOffset" : 20, "componentType" : 5126, "count" : 12, "type" : "VEC3", "max" : [0.8615732192993164, 0.5968841910362244, 0.7692831754684448], "min" : [-0.6359466910362244, -0.9045004844665527, -0.7642549872398376], "name" : "NORMAL"}, {"bufferView" : 0, "byteOffset" : 2424, "componentType" : 5123, "count" : 12, "type" : "SCALAR", "max" : [11], "min" : [0]}, {"bufferView" : 12, "byteOffset" : 0, "componentType" : 5126, "count" : 12, "type" : "VEC3", "max" : [-0.3424871861934662, 0.019421609118580818, 0.12726730108261108], "min" : [-0.3706150949001312, -0.007075995206832886, 0.10748539865016937], "name" : "POSITION"}, {"bufferView" : 12, "byteOffset" : 12, "componentType" : 5126, "count" : 12, "type" : "VEC2", "max" : [0.07426334917545319, 1.0514602661132812], "min" : [-0.07058160752058029, 1.0051783323287964], "name" : "TEXCOORD_0"}, {"bufferView" : 12, "byteOffset" : 20, "componentType" : 5126, "count" : 12, "type" : "VEC3", "max" : [0.9371263384819031, 0.6333655714988708, 0.9132115244865417], "min" : [-0.47491535544395447, -0.867713987827301, -0.6109928488731384], "name" : "NORMAL"}, {"bufferView" : 0, "byteOffset" : 2448, "componentType" : 5123, "count" : 12, "type" : "SCALAR", "max" : [11], "min" : [0]}, {"bufferView" : 13, "byteOffset" : 0, "componentType" : 5126, "count" : 12, "type" : "VEC3", "max" : [0.29015859961509705, 0.08712556958198547, -0.14404809474945068], "min" : [0.2653405964374542, 0.06598622351884842, -0.17426660656929016], "name" : "POSITION"}, {"bufferView" : 13, "byteOffset" : 12, "componentType" : 5126, "count" : 12, "type" : "VEC2", "max" : [0.052605241537094116, 1.0161360502243042], "min" : [-0.05131322145462036, 0.9615012407302856], "name" : "TEXCOORD_0"}, {"bufferView" : 13, "byteOffset" : 20, "componentType" : 5126, "count" : 12, "type" : "VEC3", "max" : [0.957732617855072, 0.6047766804695129, 0.9114251136779785], "min" : [-0.45342838764190674, -0.9783132076263428, -0.6547187566757202], "name" : "NORMAL"}, {"bufferView" : 0, "byteOffset" : 2472, "componentType" : 5123, "count" : 576, "type" : "SCALAR", "max" : [407], "min" : [0]}, {"bufferView" : 14, "byteOffset" : 0, "componentType" : 5126, "count" : 408, "type" : "VEC3", "max" : [0.27333059906959534, -0.1573611944913864, 0.13715089857578278], "min" : [0.08198848366737366, -0.26719221472740173, -0.13212279975414276], "name" : "POSITION"}, {"bufferView" : 14, "byteOffset" : 12, "componentType" : 5126, "count" : 408, "type" : "VEC2", "max" : [0.05005570873618126, 1.046934723854065], "min" : [-0.04806685075163841, 0.966277539730072], "name" : "TEXCOORD_0"}, {"bufferView" : 14, "byteOffset" : 20, "componentType" : 5126, "count" : 408, "type" : "VEC3", "max" : [0.9968616962432861, 0.9975659847259521, 0.9775355458259583], "min" : [-0.9968616962432861, -0.9997867345809937, -0.9775354862213135], "name" : "NORMAL"}, {"bufferView" : 0, "byteOffset" : 3624, "componentType" : 5123, "count" : 36, "type" : "SCALAR", "max" : [35], "min" : [0]}, {"bufferView" : 15, "byteOffset" : 0, "componentType" : 5126, "count" : 36, "type" : "VEC3", "max" : [0.20933599770069122, -0.26060301065444946, 0.08507903665304184], "min" : [0.12858590483665466, -0.26719221472740173, -0.025917019695043564], "name" : "POSITION"}, {"bufferView" : 15, "byteOffset" : 12, "componentType" : 5126, "count" : 36, "type" : "VEC2", "max" : [0.041187141090631485, 1.0260546207427979], "min" : [0.028341589495539665, 1.014764666557312], "name" : "TEXCOORD_0"}, {"bufferView" : 15, "byteOffset" : 20, "componentType" : 5126, "count" : 36, "type" : "VEC3", "max" : [0.11274538934230804, -0.9926176071166992, 0.0025826413184404373], "min" : [-0.0028645882848650217, -0.9998079538345337, -0.0833040326833725], "name" : "NORMAL"}, {"bufferView" : 0, "byteOffset" : 3696, "componentType" : 5123, "count" : 576, "type" : "SCALAR", "max" : [407], "min" : [0]}, {"bufferView" : 16, "byteOffset" : 0, "componentType" : 5126, "count" : 408, "type" : "VEC3", "max" : [-0.0060004000551998615, -0.17452730238437653, 0.22115249931812286], "min" : [-0.23248660564422607, -0.283363401889801, -0.03313859924674034], "name" : "POSITION"}, {"bufferView" : 16, "byteOffset" : 12, "componentType" : 5126, "count" : 408, "type" : "VEC2", "max" : [0.05700451135635376, 1.0634169578552246], "min" : [-0.05101801082491875, 0.957374632358551], "name" : "TEXCOORD_0"}, {"bufferView" : 16, "byteOffset" : 20, "componentType" : 5126, "count" : 408, "type" : "VEC3", "max" : [0.9995995759963989, 0.9966265559196472, 0.9870505928993225], "min" : [-0.9995995759963989, -0.9999945759773254, -0.9618765711784363], "name" : "NORMAL"}, {"bufferView" : 0, "byteOffset" : 4848, "componentType" : 5123, "count" : 36, "type" : "SCALAR", "max" : [35], "min" : [0]}, {"bufferView" : 17, "byteOffset" : 0, "componentType" : 5126, "count" : 36, "type" : "VEC3", "max" : [-0.05385458096861839, -0.2786189913749695, 0.16996969282627106], "min" : [-0.14290639758110046, -0.283363401889801, 0.06884703040122986], "name" : "POSITION"}, {"bufferView" : 17, "byteOffset" : 12, "componentType" : 5126, "count" : 36, "type" : "VEC2", "max" : [0.04092219099402428, 1.055372953414917], "min" : [0.026862280443310738, 1.0453343391418457], "name" : "TEXCOORD_0"}, {"bufferView" : 17, "byteOffset" : 20, "componentType" : 5126, "count" : 36, "type" : "VEC3", "max" : [0.0018955213017761707, -0.9945382475852966, 0.04346879571676254], "min" : [-0.10278145223855972, -0.9999722242355347, -0.053344517946243286], "name" : "NORMAL"}], "asset" : {"generator" : "Aspose.3D 24.9.1", "version" : "2.0"}, "buffers" : [{"uri" : "data:application/octet-stream;base64,", "byteLength" : 60736}], "bufferViews" : [{"buffer" : 0, "byteOffset" : 0, "byteLength" : 4920, "target" : 34963}, {"buffer" : 0, "byteOffset" : 4924, "byteLength" : 17664, "byteStride" : 32, "target" : 34962}, {"buffer" : 0, "byteOffset" : 22592, "byteLength" : 3712, "byteStride" : 32, "target" : 34962}, {"buffer" : 0, "byteOffset" : 26308, "byteLength" : 768, "byteStride" : 32, "target" : 34962}, {"buffer" : 0, "byteOffset" : 27080, "byteLength" : 768, "byteStride" : 32, "target" : 34962}, {"buffer" : 0, "byteOffset" : 27852, "byteLength" : 960, "byteStride" : 32, "target" : 34962}, {"buffer" : 0, "byteOffset" : 28816, "byteLength" : 576, "byteStride" : 32, "target" : 34962}, {"buffer" : 0, "byteOffset" : 29396, "byteLength" : 576, "byteStride" : 32, "target" : 34962}, {"buffer" : 0, "byteOffset" : 29976, "byteLength" : 384, "byteStride" : 32, "target" : 34962}, {"buffer" : 0, "byteOffset" : 30364, "byteLength" : 384, "byteStride" : 32, "target" : 34962}, {"buffer" : 0, "byteOffset" : 30752, "byteLength" : 384, "byteStride" : 32, "target" : 34962}, {"buffer" : 0, "byteOffset" : 31140, "byteLength" : 384, "byteStride" : 32, "target" : 34962}, {"buffer" : 0, "byteOffset" : 31528, "byteLength" : 384, "byteStride" : 32, "target" : 34962}, {"buffer" : 0, "byteOffset" : 31916, "byteLength" : 384, "byteStride" : 32, "target" : 34962}, {"buffer" : 0, "byteOffset" : 32304, "byteLength" : 13056, "byteStride" : 32, "target" : 34962}, {"buffer" : 0, "byteOffset" : 45364, "byteLength" : 1152, "byteStride" : 32, "target" : 34962}, {"buffer" : 0, "byteOffset" : 46520, "byteLength" : 13056, "byteStride" : 32, "target" : 34962}, {"buffer" : 0, "byteOffset" : 59580, "byteLength" : 1152, "byteStride" : 32, "target" : 34962}], "materials" : [{"name" : "mat5", "pbrMetallicRoughness" : {"baseColorFactor" : [0.01, 0.61, 0.9, 1], "metallicFactor" : 1, "roughnessFactor" : 1}, "emissiveFactor" : [0, 0, 0], "alphaMode" : "OPAQUE", "doubleSided" : false}, {"name" : "mat21", "pbrMetallicRoughness" : {"baseColorFactor" : [1, 1, 1, 1], "metallicFactor" : 1, "roughnessFactor" : 1}, "emissiveFactor" : [0, 0, 0], "alphaMode" : "OPAQUE", "doubleSided" : false}, {"name" : "mat23", "pbrMetallicRoughness" : {"baseColorFactor" : [0.1, 0.1, 0.1, 1], "metallicFactor" : 1, "roughnessFactor" : 1}, "emissiveFactor" : [0, 0, 0], "alphaMode" : "OPAQUE", "doubleSided" : false}, {"name" : "mat18", "pbrMetallicRoughness" : {"baseColorFactor" : [1, 0.8, 0.53, 1], "metallicFactor" : 1, "roughnessFactor" : 1}, "emissiveFactor" : [0, 0, 0], "alphaMode" : "OPAQUE", "doubleSided" : false}], "meshes" : [{"primitives" : [{"attributes" : {"POSITION" : 1, "TEXCOORD_0" : 2, "NORMAL" : 3}, "indices" : 0, "material" : 0, "mode" : 4}, {"attributes" : {"POSITION" : 5, "TEXCOORD_0" : 6, "NORMAL" : 7}, "indices" : 4, "material" : 1, "mode" : 4}], "name" : ""}, {"primitives" : [{"attributes" : {"POSITION" : 9, "TEXCOORD_0" : 10, "NORMAL" : 11}, "indices" : 8, "material" : 2, "mode" : 4}], "name" : ""}, {"primitives" : [{"attributes" : {"POSITION" : 13, "TEXCOORD_0" : 14, "NORMAL" : 15}, "indices" : 12, "material" : 2, "mode" : 4}], "name" : ""}, {"primitives" : [{"attributes" : {"POSITION" : 17, "TEXCOORD_0" : 18, "NORMAL" : 19}, "indices" : 16, "material" : 2, "mode" : 4}], "name" : ""}, {"primitives" : [{"attributes" : {"POSITION" : 21, "TEXCOORD_0" : 22, "NORMAL" : 23}, "indices" : 20, "material" : 1, "mode" : 4}], "name" : ""}, {"primitives" : [{"attributes" : {"POSITION" : 25, "TEXCOORD_0" : 26, "NORMAL" : 27}, "indices" : 24, "material" : 1, "mode" : 4}], "name" : ""}, {"primitives" : [{"attributes" : {"POSITION" : 29, "TEXCOORD_0" : 30, "NORMAL" : 31}, "indices" : 28, "material" : 1, "mode" : 4}], "name" : ""}, {"primitives" : [{"attributes" : {"POSITION" : 33, "TEXCOORD_0" : 34, "NORMAL" : 35}, "indices" : 32, "material" : 1, "mode" : 4}], "name" : ""}, {"primitives" : [{"attributes" : {"POSITION" : 37, "TEXCOORD_0" : 38, "NORMAL" : 39}, "indices" : 36, "material" : 1, "mode" : 4}], "name" : ""}, {"primitives" : [{"attributes" : {"POSITION" : 41, "TEXCOORD_0" : 42, "NORMAL" : 43}, "indices" : 40, "material" : 1, "mode" : 4}], "name" : ""}, {"primitives" : [{"attributes" : {"POSITION" : 45, "TEXCOORD_0" : 46, "NORMAL" : 47}, "indices" : 44, "material" : 1, "mode" : 4}], "name" : ""}, {"primitives" : [{"attributes" : {"POSITION" : 49, "TEXCOORD_0" : 50, "NORMAL" : 51}, "indices" : 48, "material" : 1, "mode" : 4}], "name" : ""}, {"primitives" : [{"attributes" : {"POSITION" : 53, "TEXCOORD_0" : 54, "NORMAL" : 55}, "indices" : 52, "material" : 1, "mode" : 4}, {"attributes" : {"POSITION" : 57, "TEXCOORD_0" : 58, "NORMAL" : 59}, "indices" : 56, "material" : 3, "mode" : 4}], "name" : ""}, {"primitives" : [{"attributes" : {"POSITION" : 61, "TEXCOORD_0" : 62, "NORMAL" : 63}, "indices" : 60, "material" : 1, "mode" : 4}, {"attributes" : {"POSITION" : 65, "TEXCOORD_0" : 66, "NORMAL" : 67}, "indices" : 64, "material" : 3, "mode" : 4}], "name" : ""}], "nodes" : [{"mesh" : 0, "name" : "mesh104282217"}, {"mesh" : 1, "name" : "mesh1180939846"}, {"mesh" : 2, "name" : "mesh919301774"}, {"mesh" : 3, "name" : "mesh1788604513"}, {"mesh" : 4, "name" : "mesh2088926915"}, {"mesh" : 5, "name" : "mesh2075947326"}, {"mesh" : 6, "name" : "mesh1484520366"}, {"mesh" : 7, "name" : "mesh1649034354"}, {"mesh" : 8, "name" : "mesh2141016639"}, {"mesh" : 9, "name" : "mesh1295261174"}, {"mesh" : 10, "name" : "mesh786316432"}, {"mesh" : 11, "name" : "mesh582722595"}, {"mesh" : 12, "name" : "mesh1662206477"}, {"mesh" : 13, "name" : "mesh117085780"}], "scene" : 0, "scenes" : [{"nodes" : [0, 1, 2, 3, 4, 5, 6, 7, 8, 9, 10, 11, 12, 13]}]}